<?xml version="1.0" standalone="no"?>
<!DOCTYPE svg PUBLIC "-//W3C//DTD SVG 1.1//EN" "http://www.w3.org/Graphics/SVG/1.1/DTD/svg11.dtd" >
<svg xmlns="http://www.w3.org/2000/svg" xmlns:xlink="http://www.w3.org/1999/xlink" version="1.1">
<metadata>
Created by FontForge 20230101 at Wed May 16 17:52:45 2007
 By Unknown
Copyright 1990-1999 as an unpublished work by Bitstream Inc.  All rights reserved.  Confidential.
</metadata>
<defs>
<font id="SerifaBT-Roman" horiz-adv-x="500" >
  <font-face 
    font-family="Serifa"
    font-weight="500"
    font-stretch="normal"
    units-per-em="1000"
    panose-1="0 0 0 0 0 0 0 0 0 0"
    ascent="800"
    descent="-200"
    x-height="456"
    cap-height="650"
    bbox="-167 -236 1000 925"
    underline-thickness="68"
    underline-position="-116"
    stemh="62"
    stemv="81"
    unicode-range="U+0020-FB02"
  />
<missing-glyph horiz-adv-x="264" 
 />
    <glyph glyph-name=".notdef" horiz-adv-x="264" 
 />
    <glyph glyph-name="space" unicode=" " horiz-adv-x="264" 
 />
    <glyph glyph-name="exclam" unicode="!" horiz-adv-x="278" 
d="M184 0h-89v95h89v-95zM173 157h-66l-17 493h98z" />
    <glyph glyph-name="quotedbl" unicode="&#x22;" horiz-adv-x="288" 
d="M103 700v-270h-57v270h57zM242 700v-270h-58v270h58z" />
    <glyph glyph-name="numbersign" unicode="#" horiz-adv-x="769" 
d="M450 711l-81 -230h127l82 230h70l-80 -230h150l-21 -60h-152l-46 -133h161l-21 -60h-162l-81 -229h-71l82 229h-129l-82 -229h-70l81 229h-156l21 60h156l47 133h-167l21 60h168l82 230h71zM475 421h-129l-46 -133h128z" />
    <glyph glyph-name="dollar" unicode="$" horiz-adv-x="528" 
d="M42 0v190h68c8 -69 48 -110 120 -126v233c-132 34 -192 86 -192 186c0 98 77 170 199 170v95h58v-95c45 -7 83 -25 112 -56v53h65v-181h-70c-4 60 -43 103 -107 119v-219c132 -40 194 -98 194 -195c0 -112 -71 -176 -203 -178v-102h-58v102c-50 4 -90 23 -121 59v-55h-65
zM286 62h2c67 0 109 40 109 100c0 57 -36 92 -111 113v-213zM237 388v204c-72 -1 -115 -42 -115 -100c0 -54 36 -84 115 -104z" />
    <glyph glyph-name="percent" unicode="%" horiz-adv-x="708" 
d="M39 495c0 113 46 169 136 169c89 0 135 -56 135 -169s-46 -170 -135 -170s-136 57 -136 170zM95 495c0 -79 24 -117 79 -117s79 38 79 117s-24 117 -79 117s-79 -38 -79 -117zM399 156c0 113 45 169 135 169c89 0 136 -56 136 -169s-47 -170 -136 -170s-135 57 -135 170z
M455 156c0 -79 24 -117 79 -117s79 38 79 117s-24 117 -79 117s-79 -38 -79 -117zM199 -14h-67l376 678h67z" />
    <glyph glyph-name="ampersand" unicode="&#x26;" horiz-adv-x="764" 
d="M255 314c-74 -35 -109 -79 -109 -140c0 -71 59 -121 145 -121c64 0 113 23 153 71zM568 0l-72 74c-56 -62 -124 -88 -214 -88c-144 0 -229 75 -229 191c0 88 48 148 148 194c-59 54 -89 99 -89 155c0 79 66 138 180 138c109 0 171 -56 171 -142c0 -70 -45 -124 -134 -167
l163 -164c24 43 37 88 38 134h-77v66h241v-66h-86c-9 -80 -30 -143 -63 -187l69 -71h95v-67h-141zM278 407c68 37 101 70 101 118c0 42 -33 74 -89 74c-55 0 -90 -29 -90 -70c0 -37 28 -72 78 -122z" />
    <glyph glyph-name="quoteright" unicode="&#x2019;" horiz-adv-x="264" 
d="M122 550h-41v100h101v-102l-41 -125h-60z" />
    <glyph glyph-name="parenleft" unicode="(" horiz-adv-x="329" 
d="M289 664c-93 -132 -137 -265 -137 -418c0 -147 45 -284 135 -416h-73c-103 135 -149 263 -149 419c0 137 50 277 151 415h73z" />
    <glyph glyph-name="parenright" unicode=")" horiz-adv-x="329" 
d="M128 664c103 -135 149 -263 149 -419c0 -137 -50 -277 -151 -415h-73c93 132 137 265 137 418c0 147 -46 284 -136 416h74z" />
    <glyph glyph-name="asterisk" unicode="*" 
d="M210 650h81l-18 -130l118 56l25 -77l-127 -22l86 -98l-66 -45l-60 117l-62 -114l-66 47l90 94l-127 27l26 76l116 -60z" />
    <glyph glyph-name="plus" unicode="+" horiz-adv-x="833" 
d="M446 596v-269h263v-57h-263v-270h-58v270h-264v57h264v269h58z" />
    <glyph glyph-name="comma" unicode="," horiz-adv-x="264" 
d="M122 0h-41v100h101v-103l-41 -125h-60z" />
    <glyph glyph-name="hyphen" unicode="-" horiz-adv-x="330" 
d="M47 193v76h237v-76h-237z" />
    <glyph glyph-name="period" unicode="." horiz-adv-x="264" 
d="M179 0h-94v102h94v-102z" />
    <glyph glyph-name="slash" unicode="/" horiz-adv-x="379" 
d="M79 -93h-72l292 757h72z" />
    <glyph glyph-name="zero" unicode="0" horiz-adv-x="528" 
d="M39 325c0 116 15 200 61 259c38 50 100 80 165 80s127 -30 165 -80c46 -59 61 -143 61 -259c0 -225 -78 -339 -226 -339c-65 0 -128 30 -166 80c-46 60 -60 144 -60 259zM126 326c0 -182 42 -270 138 -270s138 88 138 270s-42 271 -138 271s-138 -89 -138 -271z" />
    <glyph glyph-name="one" unicode="1" horiz-adv-x="528" 
d="M150 0v67h106v493c-42 -41 -94 -81 -152 -122v91c46 34 97 73 152 121h83v-583h107v-67h-296z" />
    <glyph glyph-name="two" unicode="2" horiz-adv-x="528" 
d="M44 0v110c210 180 333 271 333 369c0 72 -45 118 -112 118c-74 0 -128 -54 -128 -135h-82c2 126 81 202 209 202c125 0 205 -75 205 -189s-126 -225 -357 -408h290l4 107h73v-174h-435z" />
    <glyph glyph-name="three" unicode="3" horiz-adv-x="528" 
d="M50 184h85c0 -80 51 -128 132 -128c77 0 124 43 124 116c0 81 -52 123 -156 127v67c105 4 149 37 149 121c0 70 -40 108 -113 108c-78 0 -125 -43 -129 -119h-87c13 126 83 188 212 188c130 0 204 -68 204 -182c0 -80 -43 -129 -129 -151c91 -17 140 -74 140 -163
c0 -109 -80 -181 -218 -181c-141 0 -214 67 -214 197z" />
    <glyph glyph-name="four" unicode="4" horiz-adv-x="528" 
d="M220 0v67h102v104h-298v98l276 381h105v-409h101v-70h-101v-104h91v-67h-276zM322 241l-2 323l-236 -327z" />
    <glyph glyph-name="five" unicode="5" horiz-adv-x="528" 
d="M55 169h85c9 -74 54 -114 125 -114c86 0 134 53 134 152c0 85 -47 136 -127 136c-62 0 -103 -25 -129 -77h-80l23 384h373v-69h-301l-17 -240c27 47 78 73 148 73c120 0 198 -82 198 -212c0 -140 -79 -216 -225 -216c-128 0 -199 63 -207 183z" />
    <glyph glyph-name="six" unicode="6" horiz-adv-x="528" 
d="M143 197c0 -87 54 -142 127 -142s129 57 129 149c0 89 -47 142 -123 142c-80 0 -133 -56 -133 -149zM475 499h-91c-3 65 -37 98 -99 98c-99 0 -153 -94 -156 -279c39 66 93 99 164 99c114 0 194 -82 194 -210c0 -137 -82 -221 -215 -221c-155 0 -226 106 -226 325
c0 232 87 353 241 353c110 0 183 -63 188 -165z" />
    <glyph glyph-name="seven" unicode="7" horiz-adv-x="528" 
d="M256 0h-97c86 224 172 418 260 581h-290l-4 -118h-76l6 187h445v-80c-64 -109 -150 -299 -244 -570z" />
    <glyph glyph-name="eight" unicode="8" horiz-adv-x="528" 
d="M182 337c-80 14 -125 71 -125 156c0 103 76 171 207 171s207 -68 207 -171c0 -85 -46 -142 -126 -156c90 -23 137 -81 137 -168c0 -119 -75 -183 -218 -183s-218 64 -218 183c0 86 45 145 136 168zM264 305c-81 0 -134 -50 -134 -127s48 -122 134 -122s134 45 134 122
s-53 127 -134 127zM264 367c77 0 127 47 127 119c0 69 -48 114 -127 114s-127 -45 -127 -114c0 -72 50 -119 127 -119z" />
    <glyph glyph-name="nine" unicode="9" horiz-adv-x="528" 
d="M59 152h90c3 -65 37 -98 99 -98c99 0 153 94 156 279c-39 -66 -92 -99 -163 -99c-114 0 -195 82 -195 210c0 137 83 220 216 220c155 0 225 -105 225 -324c0 -232 -87 -354 -241 -354c-110 0 -182 64 -187 166zM391 453c0 87 -55 142 -128 142s-128 -56 -128 -148
c0 -89 46 -142 122 -142c80 0 134 55 134 148z" />
    <glyph glyph-name="colon" unicode=":" horiz-adv-x="264" 
d="M179 0h-94v102h94v-102zM179 354h-94v102h94v-102z" />
    <glyph glyph-name="semicolon" unicode=";" horiz-adv-x="264" 
d="M122 0h-41v100h101v-103l-41 -125h-60zM182 354h-94v102h94v-102z" />
    <glyph glyph-name="less" unicode="&#x3c;" horiz-adv-x="833" 
d="M704 497l-488 -199l488 -198v-63l-575 236v50l575 236v-62z" />
    <glyph glyph-name="equal" unicode="=" horiz-adv-x="833" 
d="M709 420v-57h-585v57h585zM709 233v-57h-585v57h585z" />
    <glyph glyph-name="greater" unicode="&#x3e;" horiz-adv-x="833" 
d="M704 323v-50l-575 -236v63l488 198l-488 199v62z" />
    <glyph glyph-name="question" unicode="?" horiz-adv-x="491" 
d="M269 154h-90c1 57 8 99 23 127c16 29 43 51 74 78c50 43 84 70 84 132s-44 105 -111 105s-107 -39 -115 -115h-90c8 119 78 181 203 181c127 0 204 -68 204 -171c0 -87 -44 -129 -111 -187c-41 -35 -72 -57 -72 -130c0 -6 1 -13 1 -20zM269 0h-90v95h90v-95z" />
    <glyph glyph-name="at" unicode="@" horiz-adv-x="1000" 
d="M587 231l29 118c-11 59 -49 93 -101 93c-96 0 -167 -98 -167 -224c0 -72 35 -112 96 -112c65 0 124 49 143 125zM631 412l28 59h54l-69 -277c-4 -16 -6 -29 -6 -39c0 -29 18 -44 54 -44c26 0 65 14 99 43c56 48 93 130 93 220c0 170 -135 288 -349 288
c-109 0 -204 -34 -279 -100c-92 -80 -138 -186 -138 -311c0 -112 38 -196 121 -261c64 -51 157 -82 261 -82c111 0 220 32 308 92l22 -32c-96 -72 -205 -108 -322 -108c-124 0 -227 30 -305 90c-99 76 -148 176 -148 305c0 107 34 203 98 282c94 114 228 175 392 175
c110 0 208 -31 273 -82c84 -65 128 -152 128 -250c0 -112 -43 -204 -120 -266c-45 -36 -98 -55 -152 -55c-64 0 -97 25 -97 76c0 3 1 7 1 11c-33 -57 -84 -87 -145 -87c-100 0 -153 57 -153 162c0 153 104 268 229 268c59 0 100 -26 122 -77z" />
    <glyph glyph-name="A" unicode="A" horiz-adv-x="752" 
d="M7 0v67h72l250 583h99l245 -583h72v-67h-263v67h93l-55 144h-293l-61 -144h96v-67h-255zM255 278h237l-118 281z" />
    <glyph glyph-name="B" unicode="B" horiz-adv-x="625" 
d="M204 67h134c94 0 150 50 150 122c0 75 -52 114 -150 114h-134v-236zM27 0v67h89v516h-89v67h311c146 0 219 -53 219 -161c0 -79 -47 -133 -129 -147c92 -8 148 -70 148 -158c0 -113 -84 -184 -238 -184h-311zM204 583v-213h134c86 0 131 38 131 109
c0 70 -43 104 -131 104h-134z" />
    <glyph glyph-name="C" unicode="C" horiz-adv-x="698" 
d="M548 220h92c-15 -152 -111 -234 -278 -234c-199 0 -320 128 -320 338c0 211 123 340 314 340c86 0 151 -27 206 -88v74h71v-229h-75c-8 109 -82 176 -192 176c-143 0 -232 -101 -232 -265c0 -177 89 -277 234 -277c98 0 160 57 180 165z" />
    <glyph glyph-name="D" unicode="D" horiz-adv-x="699" 
d="M27 0v67h89v516h-89v67h288c221 0 342 -116 342 -325s-121 -325 -342 -325h-288zM204 67h111c158 0 250 96 250 258c0 165 -92 258 -250 258h-111v-516z" />
    <glyph glyph-name="E" unicode="E" horiz-adv-x="648" 
d="M27 0v67h89v516h-89v67h549v-196h-67v129h-305v-219h149v96h67v-257h-67v94h-149v-230h305v138h67v-205h-549z" />
    <glyph glyph-name="F" unicode="F" horiz-adv-x="600" 
d="M116 67v516h-89v67h533v-201h-67v134h-289v-229h140v95h67v-256h-67v94h-140v-220h114v-67h-291v67h89z" />
    <glyph glyph-name="G" unicode="G" horiz-adv-x="764" 
d="M452 325h277v-67h-86v-258h-88v90c-52 -72 -117 -104 -208 -104c-182 0 -305 132 -305 338c0 211 123 340 314 340c86 0 151 -27 206 -88v74h71v-229h-75c-8 109 -82 176 -192 176c-143 0 -232 -101 -232 -265c0 -176 90 -279 230 -279c112 0 191 83 191 182v23h-103v67z
" />
    <glyph glyph-name="H" unicode="H" horiz-adv-x="743" 
d="M27 0v67h89v516h-89v67h274v-67h-97v-220h335v220h-97v67h274v-67h-89v-516h89v-67h-274v67h97v229h-335v-229h97v-67h-274z" />
    <glyph glyph-name="I" unicode="I" horiz-adv-x="333" 
d="M33 0v67h90v516h-90v67h267v-67h-89v-516h89v-67h-267z" />
    <glyph glyph-name="J" unicode="J" horiz-adv-x="507" 
d="M28 199h92c3 -100 30 -146 99 -146c75 0 105 46 105 143v387h-102v67h269v-67h-79v-387c0 -140 -62 -210 -191 -210c-135 0 -193 65 -193 209v4z" />
    <glyph glyph-name="K" unicode="K" horiz-adv-x="627" 
d="M27 0v67h89v516h-89v67h274v-67h-97v-516h97v-67h-274zM204 353l252 230h-80v67h246v-67h-52l-261 -232l264 -284h67v-67h-262v67h84z" />
    <glyph glyph-name="L" unicode="L" horiz-adv-x="600" 
d="M27 0v67h89v516h-89v67h296v-67h-119v-516h276v155h67v-222h-520z" />
    <glyph glyph-name="M" unicode="M" horiz-adv-x="904" 
d="M111 67v516h-84v67h237l187 -535l189 535h238v-67h-88v-516h88v-67h-265v67h89v516h-6l-211 -583h-75l-208 583h-3v-516h84v-67h-256v67h84z" />
    <glyph glyph-name="N" unicode="N" horiz-adv-x="745" 
d="M110 67v516h-83v67h219l308 -537v470h-95v67h266v-67h-83v-583h-125l-319 555v-488h97v-67h-268v67h83z" />
    <glyph glyph-name="O" unicode="O" horiz-adv-x="739" 
d="M42 325c0 216 123 339 327 339s328 -123 328 -339s-124 -339 -328 -339c-205 0 -327 123 -327 339zM134 326c0 -172 89 -273 235 -273s236 102 236 273s-90 271 -236 271s-235 -100 -235 -271z" />
    <glyph glyph-name="P" unicode="P" horiz-adv-x="601" 
d="M204 583v-250h111c104 0 153 35 153 125s-52 125 -159 125h-105zM204 67h115v-67h-292v67h89v516h-89v67h281c80 0 139 -5 188 -48c40 -35 60 -83 60 -144c0 -129 -80 -192 -241 -192h-111v-199z" />
    <glyph glyph-name="Q" unicode="Q" horiz-adv-x="750" 
d="M134 326c0 -172 89 -270 235 -270s236 99 236 270s-90 271 -236 271s-235 -100 -235 -271zM750 67v-67h-272c-41 -8 -80 -11 -115 -11c-205 0 -321 121 -321 336c0 216 122 339 327 339c202 0 328 -124 328 -328c0 -128 -43 -218 -130 -272c40 2 78 3 111 3h72z" />
    <glyph glyph-name="R" unicode="R" horiz-adv-x="641" 
d="M204 583v-232h102c108 0 165 42 165 118c0 85 -51 114 -165 114h-102zM204 67h97v-67h-274v67h89v516h-89v67h279c81 0 143 0 191 -35c43 -31 66 -78 66 -137c0 -89 -49 -148 -143 -166c55 -10 78 -35 94 -86l51 -159h69v-67h-139l-70 211c-21 64 -60 73 -134 73h-87
v-217z" />
    <glyph glyph-name="S" unicode="S" horiz-adv-x="549" 
d="M48 0v222h73c4 -105 58 -164 156 -164c87 0 143 50 143 112c0 55 -41 80 -114 106l-135 49c-85 30 -125 77 -125 155c0 106 82 181 205 181c65 0 117 -21 165 -67v56h74v-212h-74c-2 99 -60 156 -154 156c-78 0 -128 -46 -128 -104c0 -42 28 -69 88 -90l164 -58
c83 -30 122 -81 122 -162c0 -117 -81 -189 -218 -189c-76 0 -133 26 -171 78v-69h-71z" />
    <glyph glyph-name="T" unicode="T" horiz-adv-x="613" 
d="M106 583v-142h-88v209h577v-209h-88v142h-156v-516h106v-67h-301v67h107v516h-157z" />
    <glyph glyph-name="U" unicode="U" horiz-adv-x="705" 
d="M98 583h-85v67h272v-67h-99v-326c0 -136 46 -204 166 -204c116 0 170 69 170 204v326h-97v67h267v-67h-82v-350c0 -154 -98 -247 -258 -247c-163 0 -254 89 -254 247v350z" />
    <glyph glyph-name="V" unicode="V" horiz-adv-x="696" 
d="M7 583v67h251v-67h-99l188 -492l197 492h-100v67h245v-67h-57l-237 -583h-102l-229 583h-57z" />
    <glyph glyph-name="W" unicode="W" horiz-adv-x="977" 
d="M12 583v67h244v-67h-100l121 -491l154 558h122l157 -558l117 491h-100v67h238v-67h-55l-144 -583h-116l-160 577l-160 -577h-118l-145 583h-55z" />
    <glyph glyph-name="X" unicode="X" horiz-adv-x="657" 
d="M-14 0v67h67l222 276l-191 240h-72v67h266v-67h-86l136 -174l143 174h-87v67h262v-67h-70l-196 -239l218 -277h64v-67h-273v67h102l-166 212l-173 -212h101v-67h-267z" />
    <glyph glyph-name="Y" unicode="Y" horiz-adv-x="641" 
d="M7 583v67h246v-67h-93l165 -234l160 234h-93v67h242v-67h-53l-221 -311v-205h108v-67h-304v67h108v206l-212 310h-53z" />
    <glyph glyph-name="Z" unicode="Z" horiz-adv-x="602" 
d="M38 0v96l418 487h-334v-130h-77v197h511v-88l-424 -495h353v139h77v-206h-524z" />
    <glyph glyph-name="bracketleft" unicode="[" horiz-adv-x="328" 
d="M195 -97h63v-58h-146v805h146v-53h-63v-694z" />
    <glyph glyph-name="backslash" unicode="\" horiz-adv-x="379" 
d="M79 664l292 -757h-72l-292 757h72z" />
    <glyph glyph-name="bracketright" unicode="]" horiz-adv-x="328" 
d="M142 -97v694h-62v53h145v-805h-145v58h62z" />
    <glyph glyph-name="asciicircum" unicode="^" horiz-adv-x="1000" 
d="M539 712l254 -272h-77l-216 214l-216 -214h-78l254 272h79z" />
    <glyph glyph-name="underscore" unicode="_" 
d="M500 -178v-58h-500v58h500z" />
    <glyph glyph-name="quoteleft" unicode="&#x2018;" horiz-adv-x="264" 
d="M141 523h41v-100h-101v102l42 125h59z" />
    <glyph glyph-name="a" unicode="a" horiz-adv-x="543" 
d="M378 0v78c-36 -61 -85 -90 -155 -90c-111 0 -174 56 -174 143c0 96 79 145 236 145c21 0 51 -1 89 -2v34c0 69 -34 100 -113 100c-67 0 -100 -27 -108 -87h-86c10 96 78 147 201 147c124 0 187 -54 187 -160v-248h76v-60h-153zM374 213c-32 2 -58 3 -76 3
c-110 0 -163 -28 -163 -92c0 -42 35 -71 95 -71c87 0 144 55 144 150v10z" />
    <glyph glyph-name="b" unicode="b" horiz-adv-x="600" 
d="M94 590h-76v60h157v-281c40 64 94 94 169 94c131 0 218 -94 218 -237c0 -145 -85 -238 -222 -238c-72 0 -128 34 -168 99v-87h-154v60h76v530zM175 229c0 -112 63 -181 150 -181c89 0 151 69 151 178c0 107 -61 172 -151 172c-86 0 -150 -66 -150 -169z" />
    <glyph glyph-name="c" unicode="c" horiz-adv-x="501" 
d="M387 153h76c-15 -111 -83 -165 -204 -165c-136 0 -225 92 -225 241c0 146 88 239 224 239c57 0 104 -22 137 -65v53h60v-172h-61c-3 76 -53 119 -131 119c-87 0 -143 -63 -143 -174c0 -112 56 -176 141 -176c69 0 116 38 126 100z" />
    <glyph glyph-name="d" unicode="d" horiz-adv-x="600" 
d="M427 87c-40 -67 -97 -99 -174 -99c-129 0 -216 95 -216 240s87 240 218 240c75 0 129 -30 169 -95v217h-84v60h165v-590h76v-60h-154v87zM424 231c0 105 -63 172 -149 172c-90 0 -153 -67 -153 -175c0 -109 62 -175 152 -175c87 0 150 65 150 178z" />
    <glyph glyph-name="e" unicode="e" horiz-adv-x="532" 
d="M122 268h289c-12 92 -63 140 -145 140s-137 -51 -144 -140zM408 142h76c-21 -101 -96 -154 -220 -154c-144 0 -230 93 -230 240c0 143 92 240 232 240c147 0 231 -93 231 -260h-377c3 -101 59 -160 147 -160c78 0 129 36 141 94z" />
    <glyph glyph-name="f" unicode="f" horiz-adv-x="300" 
d="M186 60h96v-60h-253v60h76v336h-85v60h85v16c0 130 45 190 156 190c21 0 49 -3 82 -7v-68c-31 5 -56 10 -71 10c-58 0 -86 -36 -86 -105v-36h107v-60h-107v-336z" />
    <glyph glyph-name="g" unicode="g" horiz-adv-x="600" 
d="M424 227c0 112 -63 176 -150 176c-89 0 -151 -64 -151 -173c0 -107 61 -172 151 -172c88 0 150 65 150 169zM424 87c-40 -64 -94 -94 -169 -94c-131 0 -218 94 -218 237c0 145 85 238 222 238c72 0 128 -34 168 -99v87h154v-60h-76v-364c0 -143 -73 -210 -229 -210
c-134 0 -198 40 -204 137h81c11 -56 47 -77 119 -77c111 0 152 43 152 150v55z" />
    <glyph glyph-name="h" unicode="h" horiz-adv-x="578" 
d="M175 384c44 58 92 84 155 84c111 0 160 -53 160 -164v-244h76v-60h-241v60h84v244c0 69 -33 104 -99 104c-79 0 -135 -54 -135 -144v-204h85v-60h-242v60h76v530h-76v60h157v-266z" />
    <glyph glyph-name="i" unicode="i" horiz-adv-x="281" 
d="M29 0v60h78v336h-78v60h159v-396h76v-60h-235zM100 560v90h88v-90h-88z" />
    <glyph glyph-name="j" unicode="j" horiz-adv-x="264" 
d="M102 396h-83v60h164v-505c0 -92 -38 -127 -136 -127c-17 0 -37 1 -58 3v67c13 -1 25 -5 36 -5c53 0 77 19 77 62v445zM95 560v90h88v-90h-88z" />
    <glyph glyph-name="k" unicode="k" horiz-adv-x="529" 
d="M175 60h85v-60h-242v60h76v530h-76v60h157v-405l178 151h-68v60h227v-60h-62l-125 -106l144 -230h50v-60h-202v60h58l-110 178l-90 -75v-103z" />
    <glyph glyph-name="l" unicode="l" horiz-adv-x="273" 
d="M102 590h-78v60h159v-590h76v-60h-235v60h78v530z" />
    <glyph glyph-name="m" unicode="m" horiz-adv-x="857" 
d="M181 60h77v-60h-234v60h76v336h-76v60h154v-69c42 57 87 81 152 81c70 0 116 -28 138 -84c47 60 91 84 157 84c44 0 79 -12 103 -33c40 -36 41 -74 41 -131v-244h77v-60h-234v60h76v244c0 71 -24 104 -89 104c-79 0 -124 -49 -124 -144v-204h77v-60h-234v60h76v244
c0 71 -24 104 -89 104c-79 0 -124 -49 -124 -144v-204z" />
    <glyph glyph-name="n" unicode="n" horiz-adv-x="584" 
d="M24 0v60h76v336h-76v60h154v-79c42 62 91 91 158 91c111 0 160 -53 160 -164v-244h77v-60h-242v60h84v244c0 69 -33 104 -99 104c-79 0 -135 -54 -135 -144v-204h85v-60h-242z" />
    <glyph glyph-name="o" unicode="o" horiz-adv-x="532" 
d="M266 -12c-143 0 -232 92 -232 240s89 239 232 239c144 0 231 -91 231 -239s-88 -240 -231 -240zM266 53c91 0 145 65 145 176c0 112 -54 173 -145 173s-146 -61 -146 -173s54 -176 146 -176z" />
    <glyph glyph-name="p" unicode="p" horiz-adv-x="600" 
d="M172 369c41 67 97 99 175 99c130 0 215 -94 215 -240c0 -145 -87 -240 -217 -240c-75 0 -130 31 -170 95v-187h85v-60h-242v60h76v500h-76v60h154v-87zM175 224c0 -103 64 -171 150 -171c90 0 151 67 151 174c0 109 -62 176 -151 176c-87 0 -150 -67 -150 -179z" />
    <glyph glyph-name="q" unicode="q" horiz-adv-x="600" 
d="M427 369v87h154v-60h-76v-500h76v-60h-241v60h84v187c-40 -64 -94 -95 -169 -95c-130 0 -218 95 -218 240c0 146 86 240 216 240c78 0 133 -32 174 -99zM424 224c0 112 -63 179 -150 179c-89 0 -151 -67 -151 -176c0 -107 62 -174 152 -174c86 0 149 68 149 171z" />
    <glyph glyph-name="r" unicode="r" horiz-adv-x="367" 
d="M181 60h97v-60h-254v60h76v336h-76v60h154v-76c36 63 82 89 154 89c8 0 16 0 24 -1v-74c-11 1 -21 10 -31 10c-96 0 -144 -65 -144 -180v-164z" />
    <glyph glyph-name="s" unicode="s" horiz-adv-x="492" 
d="M54 0v157h65c12 -68 59 -104 129 -104c68 0 109 32 109 76c0 38 -26 55 -89 64l-85 12c-80 12 -123 55 -123 120c0 83 68 143 174 143c62 0 107 -20 137 -63v51h58v-151h-56c-5 64 -55 98 -122 98c-71 0 -110 -24 -110 -69c0 -31 20 -50 62 -56l80 -11
c106 -15 155 -54 155 -136c0 -83 -65 -143 -173 -143c-65 0 -113 23 -149 70v-58h-62z" />
    <glyph glyph-name="t" unicode="t" horiz-adv-x="363" 
d="M88 396h-90v60h90v97l81 31v-128h142v-60h-142v-282c0 -45 5 -61 44 -61c41 0 61 24 61 81h60v-9c0 -88 -44 -137 -120 -137c-88 0 -126 34 -126 112v296z" />
    <glyph glyph-name="u" unicode="u" horiz-adv-x="578" 
d="M484 456v-396h76v-60h-154v79c-42 -62 -91 -91 -158 -91c-111 0 -160 53 -160 164v244h-76v60h157v-304c0 -69 33 -99 99 -99c79 0 135 49 135 139v204h-85v60h166z" />
    <glyph glyph-name="v" unicode="v" horiz-adv-x="531" 
d="M314 0h-100l-156 396h-51v60h217v-60h-79l122 -329l125 329h-79v60h211v-60h-51z" />
    <glyph glyph-name="w" unicode="w" horiz-adv-x="866" 
d="M302 0h-102l-132 396h-56v60h227v-60h-84l101 -325l126 385h107l127 -385l102 325h-84v60h221v-60h-57l-137 -396h-97l-133 396z" />
    <glyph glyph-name="x" unicode="x" horiz-adv-x="521" 
d="M218 0h-215v60h49l160 176l-154 160h-46v60h217v-60h-70l110 -120l107 120h-70v60h204v-60h-47l-147 -166l153 -170h49v-60h-222v60h72l-111 127l-111 -127h72v-60z" />
    <glyph glyph-name="y" unicode="y" horiz-adv-x="531" 
d="M7 396v60h217v-60h-79l128 -304l119 304h-79v60h211v-60h-51l-204 -493c-24 -57 -53 -80 -118 -80c-16 0 -37 1 -62 5v65c14 -3 27 -5 39 -5c37 0 62 15 74 43l30 69l-174 396h-51z" />
    <glyph glyph-name="z" unicode="z" horiz-adv-x="487" 
d="M441 0h-394v77l299 319h-218v-89h-68v149h381v-72l-301 -324h233v104h68v-164z" />
    <glyph glyph-name="braceleft" unicode="{" 
d="M419 659c-8 0 -15 1 -22 1c-86 0 -101 -30 -101 -119v-118c0 -96 -16 -142 -97 -164c81 -22 97 -68 97 -164v-118c0 -90 16 -118 104 -118h19v-61h-17c-56 0 -97 5 -128 25c-44 29 -49 77 -49 153v119c0 97 -30 134 -119 134c-7 0 -14 -1 -22 -1v62c8 0 15 -1 22 -1
c89 0 119 37 119 135v119c0 76 4 124 49 153c31 20 71 25 128 25h17v-62z" />
    <glyph glyph-name="bar" unicode="|" 
d="M281 764v-1000h-62v1000h62z" />
    <glyph glyph-name="braceright" unicode="}" 
d="M275 543v-119c0 -98 31 -135 120 -135c7 0 14 1 22 1v-62c-8 0 -15 1 -22 1c-89 0 -120 -37 -120 -135v-118c0 -76 -4 -125 -48 -154c-30 -20 -71 -24 -126 -24h-20v61c8 0 15 -1 22 -1c86 0 101 31 101 120v117c0 96 16 142 97 164c-81 22 -97 68 -97 164v118
c0 90 -16 119 -104 119h-19v61h17c56 0 98 -5 129 -25c44 -29 48 -77 48 -153z" />
    <glyph glyph-name="asciitilde" unicode="~" horiz-adv-x="833" 
d="M747 306c-66 -47 -129 -70 -189 -70c-29 0 -60 6 -93 17c-69 23 -128 50 -190 50c-59 0 -117 -28 -188 -78v65c68 47 131 71 189 71c52 0 97 -16 142 -32c48 -17 91 -36 141 -36c60 0 118 28 188 77v-64z" />
    <glyph glyph-name="exclamdown" unicode="&#xa1;" horiz-adv-x="278" 
d="M93 650h90v-94h-90v94zM105 493h65l18 -493h-98z" />
    <glyph glyph-name="cent" unicode="&#xa2;" horiz-adv-x="528" 
d="M244 67v346c-73 -13 -116 -75 -116 -173c0 -100 40 -159 116 -173zM464 295h-62c-3 69 -40 110 -107 119v-349c60 13 91 44 100 100h75c-12 -102 -69 -155 -175 -165v-82h-51v83c-127 11 -201 100 -201 239c0 137 75 226 201 236v72h51v-72c47 -5 82 -22 109 -55v46h60
v-172z" />
    <glyph glyph-name="sterling" unicode="&#xa3;" horiz-adv-x="528" 
d="M36 0v67h80v255h-80v69h80v70c0 132 72 203 198 203c107 0 174 -58 179 -155h-82c-8 55 -43 86 -96 86c-71 0 -111 -46 -111 -134v-70h120v-69h-120v-255h208v101h74v-168h-450z" />
    <glyph glyph-name="fraction" unicode="&#x2044;" horiz-adv-x="167" 
d="M-100 -14h-67l433 678h67z" />
    <glyph glyph-name="yen" unicode="&#xa5;" horiz-adv-x="544" 
d="M119 0v67h109v206l-4 4h-201v47h172l-56 79h-116v47h84l-92 136h-53v64h239v-64h-93l167 -251l167 251h-93v64h237v-64h-53l-96 -136h84v-47h-116l-57 -79h173v-47h-205l-5 -5v-205h109v-67h-301z" />
    <glyph glyph-name="florin" unicode="&#x192;" horiz-adv-x="528" 
d="M56 -130l15 76c6 0 11 -1 16 -1c58 0 71 34 87 117l64 332h-89l12 64h90l8 44c21 107 73 162 153 162c16 0 39 -2 66 -7l-14 -68c-14 3 -27 4 -36 4c-48 0 -74 -34 -88 -105l-6 -30h104l-12 -64h-104l-68 -349c-23 -121 -59 -177 -161 -177c-11 0 -24 1 -37 2z" />
    <glyph glyph-name="section" unicode="&#xa7;" 
d="M319 195c32 19 48 41 48 68c0 53 -61 72 -187 115c-34 -19 -51 -42 -51 -68c0 -58 61 -80 190 -115zM46 64h91v-2c0 -66 39 -98 118 -98c64 0 103 32 103 79c0 55 -50 71 -152 102c-110 33 -166 65 -166 144c0 54 30 93 90 118c-56 21 -82 58 -82 115
c0 83 72 142 195 142c133 0 198 -51 198 -155v-9h-93c-1 64 -39 97 -111 97c-63 0 -100 -30 -100 -73c0 -52 58 -65 160 -101c109 -38 163 -70 163 -143c0 -56 -28 -92 -90 -115c57 -24 82 -60 82 -118c0 -97 -77 -155 -210 -155c-131 0 -194 56 -196 172z" />
    <glyph glyph-name="currency" unicode="&#xa4;" horiz-adv-x="528" 
d="M508 178c-20 -133 -93 -192 -203 -192c-120 0 -208 91 -230 253h-76l12 47h59c-1 12 -1 25 -1 38c0 14 0 28 1 41h-71l12 47h64c23 158 111 252 228 252c56 0 106 -20 132 -62v48h67v-180h-70c-2 77 -51 127 -122 127c-87 0 -135 -72 -149 -185h255l-12 -47h-247
c0 -11 -1 -22 -1 -33c0 -16 0 -31 1 -46h225l-12 -47h-208c16 -117 66 -184 147 -184c62 0 99 38 114 123h85z" />
    <glyph glyph-name="quotesingle" unicode="'" horiz-adv-x="149" 
d="M103 700v-270h-57v270h57z" />
    <glyph glyph-name="quotedblleft" unicode="&#x201c;" horiz-adv-x="502" 
d="M166 523h41v-100h-101v102l42 125h59zM355 523h41v-100h-101v102l42 125h59z" />
    <glyph glyph-name="guillemotleft" unicode="&#xab;" horiz-adv-x="442" 
d="M137 34l-79 197l79 197h75l-78 -197l78 -197h-75zM308 34l-79 197l79 197h75l-78 -197l78 -197h-75z" />
    <glyph glyph-name="guilsinglleft" unicode="&#x2039;" horiz-adv-x="271" 
d="M137 34l-79 197l79 197h75l-78 -197l78 -197h-75z" />
    <glyph glyph-name="guilsinglright" unicode="&#x203a;" horiz-adv-x="271" 
d="M134 34h-76l79 197l-79 197h76l78 -197z" />
    <glyph glyph-name="fi" unicode="&#xfb01;" horiz-adv-x="585" 
d="M491 456v-394h77v-62h-236v62h77v334h-223v-334h83v-62h-240v62h76v334h-85v60h85v50c0 102 66 156 191 156c124 0 184 -49 184 -135h-92c0 44 -33 71 -91 71c-72 0 -111 -34 -111 -98v-44h305z" />
    <glyph glyph-name="fl" unicode="&#xfb02;" horiz-adv-x="585" 
d="M105 472c0 140 49 195 188 195c55 0 122 -8 200 -23v-582h76v-62h-235v62h76v526c-37 8 -70 12 -100 12c-89 0 -124 -29 -124 -108v-36h114v-60h-114v-334h87v-62h-244v62h76v334h-85v60h85v16z" />
    <glyph glyph-name="endash" unicode="&#x2013;" 
d="M0 197v68h500v-68h-500z" />
    <glyph glyph-name="dagger" unicode="&#x2020;" 
d="M208 -108v486h-179v75h179v197h84v-197h179v-75h-179v-486h-84z" />
    <glyph glyph-name="daggerdbl" unicode="&#x2021;" 
d="M292 165h179v-76h-179v-197l-84 1v197l-179 -1v76h179v213h-179v75h179v197h84v-197h179v-75h-179v-213z" />
    <glyph glyph-name="periodcentered" unicode="&#xb7;" horiz-adv-x="264" 
d="M78 329c0 32 23 55 55 55c29 0 53 -24 53 -53c0 -32 -23 -55 -55 -55c-29 0 -53 24 -53 53z" />
    <glyph glyph-name="paragraph" unicode="&#xb6;" 
d="M463 684h-61v-684h-46v684h-90v-684h-46v382c-114 5 -183 73 -183 170c0 100 74 170 192 170h234v-38z" />
    <glyph glyph-name="bullet" unicode="&#x2022;" horiz-adv-x="590" 
d="M150 372c0 80 65 144 145 144c79 0 144 -64 144 -144c0 -79 -65 -145 -145 -145s-144 65 -144 145z" />
    <glyph glyph-name="quotesinglbase" unicode="&#x201a;" horiz-adv-x="264" 
d="M122 0h-41v100h101v-103l-41 -125h-60z" />
    <glyph glyph-name="quotedblbase" unicode="&#x201e;" horiz-adv-x="502" 
d="M147 0h-41v100h101v-103l-41 -125h-60zM336 0h-41v100h101v-103l-42 -125h-59z" />
    <glyph glyph-name="quotedblright" unicode="&#x201d;" horiz-adv-x="502" 
d="M147 550h-41v100h101v-102l-41 -125h-60zM336 550h-41v100h101v-102l-42 -125h-59z" />
    <glyph glyph-name="guillemotright" unicode="&#xbb;" horiz-adv-x="442" 
d="M305 34h-76l79 197l-79 197h76l78 -197zM134 34h-76l79 197l-79 197h76l78 -197z" />
    <glyph glyph-name="ellipsis" unicode="&#x2026;" horiz-adv-x="1000" 
d="M214 0h-94v102h94v-102zM547 0h-94v102h94v-102zM881 0h-94v102h94v-102z" />
    <glyph glyph-name="perthousand" unicode="&#x2030;" horiz-adv-x="1035" 
d="M39 495c0 113 46 169 136 169c89 0 135 -56 135 -169s-46 -170 -135 -170s-136 57 -136 170zM95 495c0 -79 24 -117 79 -117s79 38 79 117s-24 117 -79 117s-79 -38 -79 -117zM399 156c0 113 45 169 135 169c89 0 136 -56 136 -169s-47 -170 -136 -170s-135 57 -135 170z
M455 156c0 -79 24 -117 79 -117s79 38 79 117s-24 117 -79 117s-79 -38 -79 -117zM199 -14h-67l376 678h67zM726 156c0 113 45 169 135 169c89 0 136 -56 136 -169s-47 -170 -136 -170s-135 57 -135 170zM782 156c0 -79 24 -117 79 -117s79 38 79 117s-24 117 -79 117
s-79 -38 -79 -117z" />
    <glyph glyph-name="questiondown" unicode="&#xbf;" horiz-adv-x="491" 
d="M226 650h90v-94h-90v94zM226 497h90c-1 -57 -8 -99 -23 -127c-16 -29 -43 -51 -74 -78c-50 -43 -84 -70 -84 -132s44 -105 111 -105s107 39 115 115h90c-8 -119 -78 -182 -203 -182c-127 0 -204 69 -204 172c0 87 44 128 111 186c41 35 72 58 72 131c0 6 -1 13 -1 20z
" />
    <glyph glyph-name="grave" unicode="`" 
d="M315 522h-52l-138 170h87z" />
    <glyph glyph-name="acute" unicode="&#xb4;" 
d="M181 522l102 170h87l-137 -170h-52z" />
    <glyph glyph-name="circumflex" unicode="&#x2c6;" 
d="M108 522l96 170h87l96 -170h-52l-87 119l-88 -119h-52z" />
    <glyph glyph-name="tilde" unicode="&#x2dc;" 
d="M389 653c-16 -62 -50 -94 -96 -94c-12 0 -23 2 -33 5l-39 13c-9 3 -17 4 -25 4c-22 0 -38 -9 -48 -31h-42c14 60 47 91 96 91c10 0 20 -1 29 -4l39 -14c10 -3 21 -5 30 -5c23 0 39 12 47 35h42z" />
    <glyph glyph-name="macron" unicode="&#xaf;" 
d="M122 568v61h252v-61h-252z" />
    <glyph glyph-name="breve" unicode="&#x2d8;" 
d="M109 673h45c4 -50 32 -71 93 -71s90 21 94 71h44c-7 -91 -49 -132 -138 -132c-88 0 -132 41 -138 132z" />
    <glyph glyph-name="dotaccent" unicode="&#x2d9;" 
d="M207 549v100h86v-100h-86z" />
    <glyph glyph-name="dieresis" unicode="&#xa8;" 
d="M122 553v90h78v-90h-78zM296 553v90h78v-90h-78z" />
    <glyph glyph-name="ring" unicode="&#x2da;" 
d="M129 634c0 68 53 120 121 120s121 -52 121 -120s-53 -122 -121 -122s-121 54 -121 122zM181 633c0 -39 30 -70 69 -70s70 31 70 70s-31 70 -70 70c-40 0 -69 -31 -69 -70z" />
    <glyph glyph-name="cedilla" unicode="&#xb8;" 
d="M129 -206v42c52 -12 92 -17 120 -17c39 0 59 13 59 40c0 34 -21 48 -67 48c-8 0 -16 0 -25 -1v94h35v-52h11c73 0 110 -30 110 -86c0 -58 -41 -89 -121 -89c-32 0 -72 8 -122 21z" />
    <glyph glyph-name="hungarumlaut" unicode="&#x2dd;" 
d="M157 522l72 170h77l-108 -170h-41zM283 522l82 170h76l-117 -170h-41z" />
    <glyph glyph-name="ogonek" unicode="&#x2db;" 
d="M300 0c-44 -38 -66 -74 -66 -108c0 -29 13 -40 47 -40h39v-64h-38c-73 0 -109 25 -109 80c0 48 32 84 92 132h35z" />
    <glyph glyph-name="caron" unicode="&#x2c7;" 
d="M108 692h52l88 -119l87 119h52l-96 -170h-87z" />
    <glyph glyph-name="emdash" unicode="&#x2014;" horiz-adv-x="1000" 
d="M0 197v68h1000v-68h-1000z" />
    <glyph glyph-name="AE" unicode="&#xc6;" horiz-adv-x="1053" 
d="M427 0v67h93v144h-294l-115 -144h96v-67h-255v67h72l410 519h-89v64h636v-196h-73v132h-300v-222h148v96h69v-257h-69v95h-148v-231h300v138h73v-205h-554zM279 278h241v308z" />
    <glyph glyph-name="ordfeminine" unicode="&#xaa;" horiz-adv-x="407" 
d="M284 331v55c-27 -43 -64 -63 -117 -63c-83 0 -130 39 -130 100c0 67 59 101 177 101c16 0 38 -1 67 -1v24c0 48 -26 70 -85 70c-50 0 -75 -19 -81 -61h-65c8 67 59 103 151 103c93 0 140 -38 140 -112v-174h57v-42h-114zM281 480c-24 1 -44 2 -57 2
c-83 0 -123 -19 -123 -64c0 -30 27 -50 72 -50c65 0 108 39 108 105v7z" />
    <glyph glyph-name="Lslash" unicode="&#x141;" horiz-adv-x="606" 
d="M34 0v67h89v198l-123 -86v61l123 86v260h-89v64h296v-64h-119v-217l153 107v-61l-153 -107v-241h269v155h74v-222h-520z" />
    <glyph glyph-name="Oslash" unicode="&#xd8;" horiz-adv-x="739" 
d="M95 -31l-38 35l65 77c-53 60 -81 144 -81 250c0 207 128 335 327 335c76 0 144 -20 208 -62l67 77l38 -34l-66 -78c58 -68 82 -144 82 -241c0 -217 -122 -342 -324 -342c-81 0 -151 20 -210 61zM215 108c45 -36 98 -54 157 -54c140 0 232 103 232 274
c0 69 -15 127 -47 176zM524 544c-47 37 -98 54 -155 54c-145 0 -235 -103 -235 -272c0 -73 15 -132 47 -178z" />
    <glyph glyph-name="OE" unicode="&#x152;" horiz-adv-x="1059" 
d="M625 650h373v-196h-74v132h-299v-222h147v96h69v-257h-69v95h-147v-231h299v138h74v-205h-373c-78 0 -160 -14 -247 -14c-215 0 -336 120 -336 339c0 218 121 339 335 339c84 0 167 -14 248 -14zM537 586c-54 8 -100 12 -139 12c-176 0 -264 -90 -264 -272
s87 -271 263 -271c39 0 86 4 140 12v519z" />
    <glyph glyph-name="ordmasculine" unicode="&#xba;" horiz-adv-x="399" 
d="M200 323c-108 0 -174 64 -174 168c0 103 66 167 174 167s173 -64 173 -167c0 -104 -66 -168 -173 -168zM200 368c68 0 108 46 108 123c0 79 -40 121 -108 121c-69 0 -110 -42 -110 -121c0 -78 41 -123 110 -123z" />
    <glyph glyph-name="ae" unicode="&#xe6;" horiz-adv-x="766" 
d="M357 97c-36 -74 -92 -109 -172 -109c-97 0 -158 56 -158 143c0 95 76 145 223 145c19 0 47 -1 83 -2v34c0 68 -32 99 -106 99c-63 0 -94 -26 -102 -86h-81c9 97 74 147 189 147c74 0 120 -20 154 -77c37 52 84 77 147 77c126 0 195 -88 197 -255h-320v-12
c0 -97 46 -151 117 -151c61 0 102 33 112 92h79c-16 -102 -78 -154 -183 -154c-88 0 -148 36 -179 109zM333 213c-30 2 -53 3 -70 3c-102 0 -151 -27 -151 -92c0 -42 33 -73 88 -73c79 0 133 57 133 152v10zM644 274c-10 87 -50 133 -111 133c-70 0 -112 -45 -121 -133h232z
" />
    <glyph glyph-name="dotlessi" unicode="&#x131;" horiz-adv-x="281" 
d="M29 0v62h76v334h-76v60h159v-394h76v-62h-235z" />
    <glyph glyph-name="lslash" unicode="&#x142;" horiz-adv-x="285" 
d="M106 297l-98 -69v44l98 69v249h-76v60h159v-273l98 69v-44l-98 -69v-271h76v-62h-235v62h76v235z" />
    <glyph glyph-name="oslash" unicode="&#xf8;" horiz-adv-x="532" 
d="M43 1l49 58c-37 41 -58 98 -58 169c0 148 89 239 232 239c55 0 101 -13 144 -42l51 56l29 -28l-49 -56c36 -43 56 -99 56 -169c0 -148 -87 -240 -231 -240c-53 0 -100 13 -144 41l-52 -59zM387 337l-216 -251c28 -22 59 -33 95 -33c90 0 146 65 146 178
c0 46 -8 80 -25 106zM144 120l218 250c-23 23 -55 36 -99 36c-86 0 -143 -66 -143 -177c0 -41 7 -76 24 -109z" />
    <glyph glyph-name="oe" unicode="&#x153;" horiz-adv-x="824" 
d="M422 93c-39 -71 -96 -105 -178 -105c-130 0 -210 90 -210 240s80 240 210 240c82 0 143 -34 182 -101c38 69 89 101 162 101c129 0 200 -90 200 -261h-320v-9c0 -94 47 -148 117 -148c61 0 102 33 112 92h79c-16 -102 -77 -154 -183 -154c-80 0 -133 32 -171 105zM253 53
c84 0 134 64 134 176s-50 176 -134 176s-134 -64 -134 -176c0 -113 50 -176 134 -176zM702 266c-11 93 -50 140 -116 140c-65 0 -107 -50 -116 -140h232z" />
    <glyph glyph-name="germandbls" unicode="&#xdf;" horiz-adv-x="547" 
d="M101 474c0 125 67 189 195 189c124 0 193 -61 193 -169c0 -80 -47 -127 -139 -137c115 -15 164 -68 164 -174c0 -119 -70 -183 -201 -183c-8 0 -16 1 -24 1v63c5 0 10 -1 15 -1c81 0 124 46 124 131c0 81 -46 122 -138 122h-7v75c82 4 120 36 120 103
c0 68 -37 107 -100 107c-90 0 -120 -43 -120 -143v-396h46v-62h-205v62h77v412z" />
    <glyph glyph-name="Aacute" unicode="&#xc1;" horiz-adv-x="752" 
d="M7 0v67h72l250 583h99l245 -583h72v-67h-263v67h93l-55 144h-293l-61 -144h96v-67h-255zM255 278h237l-118 281zM315 719l102 170h87l-137 -170h-52z" />
    <glyph glyph-name="Acircumflex" unicode="&#xc2;" horiz-adv-x="752" 
d="M7 0v67h72l250 583h99l245 -583h72v-67h-263v67h93l-55 144h-293l-61 -144h96v-67h-255zM255 278h237l-118 281zM242 719l96 170h87l96 -170h-52l-87 119l-88 -119h-52z" />
    <glyph glyph-name="Adieresis" unicode="&#xc4;" horiz-adv-x="752" 
d="M7 0v67h72l250 583h99l245 -583h72v-67h-263v67h93l-55 144h-293l-61 -144h96v-67h-255zM255 278h237l-118 281zM256 750v90h78v-90h-78zM430 750v90h78v-90h-78z" />
    <glyph glyph-name="Agrave" unicode="&#xc0;" horiz-adv-x="752" 
d="M7 0v67h72l250 583h99l245 -583h72v-67h-263v67h93l-55 144h-293l-61 -144h96v-67h-255zM255 278h237l-118 281zM449 719h-52l-138 170h87z" />
    <glyph glyph-name="Aring" unicode="&#xc5;" horiz-adv-x="752" 
d="M7 0v67h72l250 583h99l245 -583h72v-67h-263v67h93l-55 144h-293l-61 -144h96v-67h-255zM255 278h237l-118 281zM258 804c0 68 53 121 121 121s121 -53 121 -121s-53 -121 -121 -121s-121 53 -121 121zM309 804c0 -39 31 -70 70 -70s69 31 69 70s-30 69 -69 69
c-40 0 -70 -30 -70 -69z" />
    <glyph glyph-name="Atilde" unicode="&#xc3;" horiz-adv-x="752" 
d="M7 0v67h72l250 583h99l245 -583h72v-67h-263v67h93l-55 144h-293l-61 -144h96v-67h-255zM255 278h237l-118 281zM523 850c-16 -62 -50 -94 -96 -94c-12 0 -23 2 -33 5l-39 13c-9 3 -17 4 -25 4c-22 0 -38 -9 -48 -31h-42c14 60 47 91 96 91c10 0 20 -1 29 -4l39 -14
c10 -3 21 -5 30 -5c23 0 39 12 47 35h42z" />
    <glyph glyph-name="Ccedilla" unicode="&#xc7;" horiz-adv-x="698" 
d="M548 220h92c-15 -152 -111 -234 -278 -234c-199 0 -320 128 -320 338c0 211 123 340 314 340c86 0 151 -27 206 -88v74h71v-229h-75c-8 109 -82 176 -192 176c-143 0 -232 -101 -232 -265c0 -177 89 -277 234 -277c98 0 160 57 180 165zM228 -206v42
c52 -12 92 -17 120 -17c39 0 59 13 59 40c0 34 -21 48 -67 48c-8 0 -16 0 -25 -1v94h35v-52h11c73 0 110 -30 110 -86c0 -58 -41 -89 -121 -89c-32 0 -72 8 -122 21z" />
    <glyph glyph-name="Eacute" unicode="&#xc9;" horiz-adv-x="648" 
d="M27 0v67h89v516h-89v67h549v-196h-67v129h-305v-219h149v96h67v-257h-67v94h-149v-230h305v138h67v-205h-549zM249 719l102 170h87l-137 -170h-52z" />
    <glyph glyph-name="Ecircumflex" unicode="&#xca;" horiz-adv-x="648" 
d="M27 0v67h89v516h-89v67h549v-196h-67v129h-305v-219h149v96h67v-257h-67v94h-149v-230h305v138h67v-205h-549zM176 719l96 170h87l96 -170h-52l-87 119l-88 -119h-52z" />
    <glyph glyph-name="Edieresis" unicode="&#xcb;" horiz-adv-x="648" 
d="M27 0v67h89v516h-89v67h549v-196h-67v129h-305v-219h149v96h67v-257h-67v94h-149v-230h305v138h67v-205h-549zM190 750v90h78v-90h-78zM364 750v90h78v-90h-78z" />
    <glyph glyph-name="Egrave" unicode="&#xc8;" horiz-adv-x="648" 
d="M27 0v67h89v516h-89v67h549v-196h-67v129h-305v-219h149v96h67v-257h-67v94h-149v-230h305v138h67v-205h-549zM383 719h-52l-138 170h87z" />
    <glyph glyph-name="Eth" unicode="&#xd0;" horiz-adv-x="706" 
d="M34 0v67h89v234h-123v57h123v228h-89v64h288c221 0 342 -116 342 -325s-121 -325 -342 -325h-288zM211 67h111c158 0 250 96 250 258c0 165 -92 261 -250 261h-111v-228h164v-57h-164v-234z" />
    <glyph glyph-name="Euro" unicode="&#x20ac;" horiz-adv-x="528" 
d="M508 178c-20 -133 -93 -192 -203 -192c-120 0 -208 91 -230 253h-76l12 47h59c-1 12 -1 25 -1 38c0 14 0 28 1 41h-71l12 47h64c23 158 111 252 228 252c56 0 106 -20 132 -62v48h67v-180h-70c-2 77 -51 127 -122 127c-87 0 -135 -72 -149 -185h255l-12 -47h-247
c0 -11 -1 -22 -1 -33c0 -16 0 -31 1 -46h225l-12 -47h-208c16 -117 66 -184 147 -184c62 0 99 38 114 123h85z" />
    <glyph glyph-name="Iacute" unicode="&#xcd;" horiz-adv-x="333" 
d="M33 0v67h90v516h-90v67h267v-67h-89v-516h89v-67h-267zM98 719l102 170h87l-137 -170h-52z" />
    <glyph glyph-name="Icircumflex" unicode="&#xce;" horiz-adv-x="333" 
d="M33 0v67h90v516h-90v67h267v-67h-89v-516h89v-67h-267zM25 719l96 170h87l96 -170h-52l-87 119l-88 -119h-52z" />
    <glyph glyph-name="Idieresis" unicode="&#xcf;" horiz-adv-x="333" 
d="M33 0v67h90v516h-90v67h267v-67h-89v-516h89v-67h-267zM39 750v90h78v-90h-78zM213 750v90h78v-90h-78z" />
    <glyph glyph-name="Igrave" unicode="&#xcc;" horiz-adv-x="333" 
d="M33 0v67h90v516h-90v67h267v-67h-89v-516h89v-67h-267zM232 719h-52l-138 170h87z" />
    <glyph glyph-name="Ntilde" unicode="&#xd1;" horiz-adv-x="745" 
d="M110 67v516h-83v67h219l308 -537v470h-95v67h266v-67h-83v-583h-125l-319 555v-488h97v-67h-268v67h83zM512 850c-16 -62 -50 -94 -96 -94c-12 0 -23 2 -33 5l-39 13c-9 3 -17 4 -25 4c-22 0 -38 -9 -48 -31h-42c14 60 47 91 96 91c10 0 20 -1 29 -4l39 -14
c10 -3 21 -5 30 -5c23 0 39 12 47 35h42z" />
    <glyph glyph-name="Oacute" unicode="&#xd3;" horiz-adv-x="739" 
d="M42 325c0 216 123 339 327 339s328 -123 328 -339s-124 -339 -328 -339c-205 0 -327 123 -327 339zM134 326c0 -172 89 -273 235 -273s236 102 236 273s-90 271 -236 271s-235 -100 -235 -271zM301 719l102 170h87l-137 -170h-52z" />
    <glyph glyph-name="Ocircumflex" unicode="&#xd4;" horiz-adv-x="739" 
d="M42 325c0 216 123 339 327 339s328 -123 328 -339s-124 -339 -328 -339c-205 0 -327 123 -327 339zM134 326c0 -172 89 -273 235 -273s236 102 236 273s-90 271 -236 271s-235 -100 -235 -271zM228 719l96 170h87l96 -170h-52l-87 119l-88 -119h-52z" />
    <glyph glyph-name="Odieresis" unicode="&#xd6;" horiz-adv-x="739" 
d="M42 325c0 216 123 339 327 339s328 -123 328 -339s-124 -339 -328 -339c-205 0 -327 123 -327 339zM134 326c0 -172 89 -273 235 -273s236 102 236 273s-90 271 -236 271s-235 -100 -235 -271zM242 750v90h78v-90h-78zM416 750v90h78v-90h-78z" />
    <glyph glyph-name="Ograve" unicode="&#xd2;" horiz-adv-x="739" 
d="M42 325c0 216 123 339 327 339s328 -123 328 -339s-124 -339 -328 -339c-205 0 -327 123 -327 339zM134 326c0 -172 89 -273 235 -273s236 102 236 273s-90 271 -236 271s-235 -100 -235 -271zM435 719h-52l-138 170h87z" />
    <glyph glyph-name="Otilde" unicode="&#xd5;" horiz-adv-x="739" 
d="M42 325c0 216 123 339 327 339s328 -123 328 -339s-124 -339 -328 -339c-205 0 -327 123 -327 339zM134 326c0 -172 89 -273 235 -273s236 102 236 273s-90 271 -236 271s-235 -100 -235 -271zM509 850c-16 -62 -50 -94 -96 -94c-12 0 -23 2 -33 5l-39 13
c-9 3 -17 4 -25 4c-22 0 -38 -9 -48 -31h-42c14 60 47 91 96 91c10 0 20 -1 29 -4l39 -14c10 -3 21 -5 30 -5c23 0 39 12 47 35h42z" />
    <glyph glyph-name="Scaron" unicode="&#x160;" horiz-adv-x="549" 
d="M48 0v222h73c4 -105 58 -164 156 -164c87 0 143 50 143 112c0 55 -41 80 -114 106l-135 49c-85 30 -125 77 -125 155c0 106 82 181 205 181c65 0 117 -21 165 -67v56h74v-212h-74c-2 99 -60 156 -154 156c-78 0 -128 -46 -128 -104c0 -42 28 -69 88 -90l164 -58
c83 -30 122 -81 122 -162c0 -117 -81 -189 -218 -189c-76 0 -133 26 -171 78v-69h-71zM133 889h52l88 -119l87 119h52l-96 -170h-87z" />
    <glyph glyph-name="Thorn" unicode="&#xde;" horiz-adv-x="601" 
d="M204 459v-253h111c104 0 152 35 152 125s-51 128 -158 128h-105zM293 650v-64h-89v-62h104c80 0 139 -5 188 -48c40 -35 60 -84 60 -145c0 -129 -80 -191 -241 -191h-111v-73h115v-67h-292v67h89v519h-89v64h266z" />
    <glyph glyph-name="Uacute" unicode="&#xda;" horiz-adv-x="705" 
d="M98 583h-85v67h272v-67h-99v-326c0 -136 46 -204 166 -204c116 0 170 69 170 204v326h-97v67h267v-67h-82v-350c0 -154 -98 -247 -258 -247c-163 0 -254 89 -254 247v350zM284 719l102 170h87l-137 -170h-52z" />
    <glyph glyph-name="Ucircumflex" unicode="&#xdb;" horiz-adv-x="705" 
d="M98 583h-85v67h272v-67h-99v-326c0 -136 46 -204 166 -204c116 0 170 69 170 204v326h-97v67h267v-67h-82v-350c0 -154 -98 -247 -258 -247c-163 0 -254 89 -254 247v350zM211 719l96 170h87l96 -170h-52l-87 119l-88 -119h-52z" />
    <glyph glyph-name="Udieresis" unicode="&#xdc;" horiz-adv-x="705" 
d="M98 583h-85v67h272v-67h-99v-326c0 -136 46 -204 166 -204c116 0 170 69 170 204v326h-97v67h267v-67h-82v-350c0 -154 -98 -247 -258 -247c-163 0 -254 89 -254 247v350zM225 750v90h78v-90h-78zM399 750v90h78v-90h-78z" />
    <glyph glyph-name="Ugrave" unicode="&#xd9;" horiz-adv-x="705" 
d="M98 583h-85v67h272v-67h-99v-326c0 -136 46 -204 166 -204c116 0 170 69 170 204v326h-97v67h267v-67h-82v-350c0 -154 -98 -247 -258 -247c-163 0 -254 89 -254 247v350zM418 719h-52l-138 170h87z" />
    <glyph glyph-name="Yacute" unicode="&#xdd;" horiz-adv-x="641" 
d="M7 583v67h246v-67h-93l165 -234l160 234h-93v67h242v-67h-53l-221 -311v-205h108v-67h-304v67h108v206l-212 310h-53zM252 719l102 170h87l-137 -170h-52z" />
    <glyph glyph-name="Ydieresis" unicode="&#x178;" horiz-adv-x="641" 
d="M7 583v67h246v-67h-93l165 -234l160 234h-93v67h242v-67h-53l-221 -311v-205h108v-67h-304v67h108v206l-212 310h-53zM193 750v90h78v-90h-78zM367 750v90h78v-90h-78z" />
    <glyph glyph-name="Zcaron" unicode="&#x17d;" horiz-adv-x="602" 
d="M38 0v96l418 487h-334v-130h-77v197h511v-88l-424 -495h353v139h77v-206h-524zM159 889h52l88 -119l87 119h52l-96 -170h-87z" />
    <glyph glyph-name="aacute" unicode="&#xe1;" horiz-adv-x="543" 
d="M378 0v78c-36 -61 -85 -90 -155 -90c-111 0 -174 56 -174 143c0 96 79 145 236 145c21 0 51 -1 89 -2v34c0 69 -34 100 -113 100c-67 0 -100 -27 -108 -87h-86c10 96 78 147 201 147c124 0 187 -54 187 -160v-248h76v-60h-153zM374 213c-32 2 -58 3 -76 3
c-110 0 -163 -28 -163 -92c0 -42 35 -71 95 -71c87 0 144 55 144 150v10zM200 522l102 170h87l-137 -170h-52z" />
    <glyph glyph-name="acircumflex" unicode="&#xe2;" horiz-adv-x="543" 
d="M378 0v78c-36 -61 -85 -90 -155 -90c-111 0 -174 56 -174 143c0 96 79 145 236 145c21 0 51 -1 89 -2v34c0 69 -34 100 -113 100c-67 0 -100 -27 -108 -87h-86c10 96 78 147 201 147c124 0 187 -54 187 -160v-248h76v-60h-153zM374 213c-32 2 -58 3 -76 3
c-110 0 -163 -28 -163 -92c0 -42 35 -71 95 -71c87 0 144 55 144 150v10zM127 522l96 170h87l96 -170h-52l-87 119l-88 -119h-52z" />
    <glyph glyph-name="adieresis" unicode="&#xe4;" horiz-adv-x="543" 
d="M378 0v78c-36 -61 -85 -90 -155 -90c-111 0 -174 56 -174 143c0 96 79 145 236 145c21 0 51 -1 89 -2v34c0 69 -34 100 -113 100c-67 0 -100 -27 -108 -87h-86c10 96 78 147 201 147c124 0 187 -54 187 -160v-248h76v-60h-153zM374 213c-32 2 -58 3 -76 3
c-110 0 -163 -28 -163 -92c0 -42 35 -71 95 -71c87 0 144 55 144 150v10zM141 553v90h78v-90h-78zM315 553v90h78v-90h-78z" />
    <glyph glyph-name="agrave" unicode="&#xe0;" horiz-adv-x="543" 
d="M378 0v78c-36 -61 -85 -90 -155 -90c-111 0 -174 56 -174 143c0 96 79 145 236 145c21 0 51 -1 89 -2v34c0 69 -34 100 -113 100c-67 0 -100 -27 -108 -87h-86c10 96 78 147 201 147c124 0 187 -54 187 -160v-248h76v-60h-153zM374 213c-32 2 -58 3 -76 3
c-110 0 -163 -28 -163 -92c0 -42 35 -71 95 -71c87 0 144 55 144 150v10zM334 522h-52l-138 170h87z" />
    <glyph glyph-name="aring" unicode="&#xe5;" horiz-adv-x="543" 
d="M374 213c-32 2 -58 3 -76 3c-110 0 -164 -28 -164 -92c0 -42 36 -73 96 -73c87 0 144 57 144 152v10zM378 0v78c-36 -61 -85 -90 -155 -90c-111 0 -174 56 -174 143c0 96 79 145 236 145c21 0 51 -1 89 -2v34c0 69 -34 99 -113 99c-67 0 -100 -26 -108 -86h-86
c10 96 78 147 201 147c124 0 187 -54 187 -160v-246h76v-62h-153zM149 622c0 68 53 120 121 120s121 -52 121 -120s-53 -122 -121 -122s-121 54 -121 122zM200 621c0 -39 31 -70 70 -70s69 31 69 70s-30 70 -69 70c-40 0 -70 -31 -70 -70z" />
    <glyph glyph-name="atilde" unicode="&#xe3;" horiz-adv-x="543" 
d="M378 0v78c-36 -61 -85 -90 -155 -90c-111 0 -174 56 -174 143c0 96 79 145 236 145c21 0 51 -1 89 -2v34c0 69 -34 100 -113 100c-67 0 -100 -27 -108 -87h-86c10 96 78 147 201 147c124 0 187 -54 187 -160v-248h76v-60h-153zM374 213c-32 2 -58 3 -76 3
c-110 0 -163 -28 -163 -92c0 -42 35 -71 95 -71c87 0 144 55 144 150v10zM408 653c-16 -62 -50 -94 -96 -94c-12 0 -23 2 -33 5l-39 13c-9 3 -17 4 -25 4c-22 0 -38 -9 -48 -31h-42c14 60 47 91 96 91c10 0 20 -1 29 -4l39 -14c10 -3 21 -5 30 -5c23 0 39 12 47 35h42z" />
    <glyph glyph-name="brokenbar" unicode="&#xa6;" 
d="M281 699v-370h-62v370h62zM281 199v-370h-62v370h62z" />
    <glyph glyph-name="ccedilla" unicode="&#xe7;" horiz-adv-x="501" 
d="M387 153h76c-15 -111 -83 -165 -204 -165c-136 0 -225 92 -225 241c0 146 88 239 224 239c57 0 104 -22 137 -65v53h60v-172h-61c-3 76 -53 119 -131 119c-87 0 -143 -63 -143 -174c0 -112 56 -176 141 -176c69 0 116 38 126 100zM136 -206v42c52 -12 92 -17 120 -17
c39 0 59 13 59 40c0 34 -21 48 -67 48c-8 0 -16 0 -25 -1v94h35v-52h11c73 0 110 -30 110 -86c0 -58 -41 -89 -121 -89c-32 0 -72 8 -122 21z" />
    <glyph glyph-name="copyright" unicode="&#xa9;" horiz-adv-x="833" 
d="M416 713c97 0 187 -36 256 -105c67 -67 103 -157 103 -254c0 -98 -36 -186 -103 -252c-71 -69 -162 -107 -256 -107c-95 0 -183 37 -252 106s-106 158 -106 253s38 185 107 255c66 67 154 104 251 104zM733 354c0 85 -33 165 -92 224c-60 60 -139 92 -225 92
s-163 -32 -221 -91c-61 -62 -94 -142 -94 -225s33 -161 93 -222c60 -60 138 -93 222 -93c83 0 164 33 226 94c59 58 91 135 91 221zM520 445c-10 51 -49 80 -102 80c-75 0 -121 -61 -121 -172c0 -107 48 -168 121 -168c56 0 97 33 107 89h63c-7 -83 -77 -140 -173 -140
c-113 0 -188 83 -188 218c0 138 78 223 193 223c90 0 156 -54 163 -130h-63z" />
    <glyph glyph-name="degree" unicode="&#xb0;" horiz-adv-x="329" 
d="M165 710c76 0 138 -62 138 -138c0 -75 -61 -138 -139 -138c-77 0 -137 61 -137 138c0 78 62 138 138 138zM263 572c0 54 -43 98 -98 98c-54 0 -99 -43 -99 -98c0 -56 45 -99 99 -99c56 0 98 45 98 99z" />
    <glyph glyph-name="divide" unicode="&#xf7;" horiz-adv-x="833" 
d="M417 530c31 0 56 -25 56 -56c0 -30 -24 -56 -56 -56s-56 25 -56 56s26 56 56 56zM709 327v-57h-585v57h585zM417 178c30 0 56 -25 56 -56c0 -30 -24 -56 -56 -56c-31 0 -56 25 -56 56c0 32 26 56 56 56z" />
    <glyph glyph-name="eacute" unicode="&#xe9;" horiz-adv-x="532" 
d="M122 268h289c-12 92 -63 140 -145 140s-137 -51 -144 -140zM408 142h76c-21 -101 -96 -154 -220 -154c-144 0 -230 93 -230 240c0 143 92 240 232 240c147 0 231 -93 231 -260h-377c3 -101 59 -160 147 -160c78 0 129 36 141 94zM197 522l102 170h87l-137 -170h-52z" />
    <glyph glyph-name="ecircumflex" unicode="&#xea;" horiz-adv-x="532" 
d="M122 268h289c-12 92 -63 140 -145 140s-137 -51 -144 -140zM408 142h76c-21 -101 -96 -154 -220 -154c-144 0 -230 93 -230 240c0 143 92 240 232 240c147 0 231 -93 231 -260h-377c3 -101 59 -160 147 -160c78 0 129 36 141 94zM124 522l96 170h87l96 -170h-52l-87 119
l-88 -119h-52z" />
    <glyph glyph-name="edieresis" unicode="&#xeb;" horiz-adv-x="532" 
d="M122 268h289c-12 92 -63 140 -145 140s-137 -51 -144 -140zM408 142h76c-21 -101 -96 -154 -220 -154c-144 0 -230 93 -230 240c0 143 92 240 232 240c147 0 231 -93 231 -260h-377c3 -101 59 -160 147 -160c78 0 129 36 141 94zM138 553v90h78v-90h-78zM312 553v90h78
v-90h-78z" />
    <glyph glyph-name="egrave" unicode="&#xe8;" horiz-adv-x="532" 
d="M122 268h289c-12 92 -63 140 -145 140s-137 -51 -144 -140zM408 142h76c-21 -101 -96 -154 -220 -154c-144 0 -230 93 -230 240c0 143 92 240 232 240c147 0 231 -93 231 -260h-377c3 -101 59 -160 147 -160c78 0 129 36 141 94zM331 522h-52l-138 170h87z" />
    <glyph glyph-name="eth" unicode="&#xf0;" horiz-adv-x="486" 
d="M325 405c-10 26 -33 60 -75 97l-133 -70l-13 25l122 65c-34 25 -75 47 -122 67l25 61c62 -23 116 -54 164 -92l111 58l12 -26l-99 -53c88 -85 134 -198 134 -323c0 -144 -77 -226 -208 -226c-129 0 -209 83 -209 215c0 133 80 216 209 216c32 0 58 -4 82 -14zM243 47
c82 0 131 58 131 158c0 101 -48 158 -131 158c-82 0 -131 -58 -131 -158s49 -158 131 -158z" />
    <glyph glyph-name="iacute" unicode="&#xed;" horiz-adv-x="281" 
d="M29 0v62h76v334h-76v60h159v-394h76v-62h-235zM72 522l102 170h87l-137 -170h-52z" />
    <glyph glyph-name="icircumflex" unicode="&#xee;" horiz-adv-x="281" 
d="M29 0v62h76v334h-76v60h159v-394h76v-62h-235zM-1 522l96 170h87l96 -170h-52l-87 119l-88 -119h-52z" />
    <glyph glyph-name="idieresis" unicode="&#xef;" horiz-adv-x="281" 
d="M29 0v62h76v334h-76v60h159v-394h76v-62h-235zM13 553v90h78v-90h-78zM187 553v90h78v-90h-78z" />
    <glyph glyph-name="igrave" unicode="&#xec;" horiz-adv-x="281" 
d="M29 0v62h76v334h-76v60h159v-394h76v-62h-235zM206 522h-52l-138 170h87z" />
    <glyph glyph-name="logicalnot" unicode="&#xac;" horiz-adv-x="833" 
d="M709 419v-245h-56v188h-529v57h585z" />
    <glyph glyph-name="minus" unicode="&#x2212;" horiz-adv-x="833" 
d="M709 327v-58h-585v58h585z" />
    <glyph glyph-name="mu" unicode="&#xb5;" horiz-adv-x="551" 
d="M177 522l-62 -291c-5 -22 -7 -44 -7 -67c0 -70 38 -111 106 -111c82 0 135 66 164 200l59 269h76l-79 -368c-7 -31 -11 -53 -11 -66c0 -21 12 -32 35 -32c2 0 8 0 17 1l-13 -61c-17 -4 -33 -5 -45 -5c-46 0 -67 22 -71 72c-26 -45 -78 -72 -141 -72c-56 0 -99 22 -128 67
l-55 -266h-76l154 730h77z" />
    <glyph glyph-name="multiply" unicode="&#xd7;" horiz-adv-x="833" 
d="M419 338l232 233l40 -40l-232 -233l232 -232l-40 -40l-232 232l-233 -232l-39 40l232 232l-232 233l39 40z" />
    <glyph glyph-name="ntilde" unicode="&#xf1;" horiz-adv-x="584" 
d="M24 0v60h76v336h-76v60h154v-79c42 62 91 91 158 91c111 0 160 -53 160 -164v-244h77v-60h-242v60h84v244c0 69 -33 104 -99 104c-79 0 -135 -54 -135 -144v-204h85v-60h-242zM436 653c-16 -62 -50 -94 -96 -94c-12 0 -23 2 -33 5l-39 13c-9 3 -17 4 -25 4
c-22 0 -38 -9 -48 -31h-42c14 60 47 91 96 91c10 0 20 -1 29 -4l39 -14c10 -3 21 -5 30 -5c23 0 39 12 47 35h42z" />
    <glyph glyph-name="oacute" unicode="&#xf3;" horiz-adv-x="532" 
d="M266 -12c-143 0 -232 92 -232 240s89 239 232 239c144 0 231 -91 231 -239s-88 -240 -231 -240zM266 53c91 0 145 65 145 176c0 112 -54 173 -145 173s-146 -61 -146 -173s54 -176 146 -176zM197 522l102 170h87l-137 -170h-52z" />
    <glyph glyph-name="ocircumflex" unicode="&#xf4;" horiz-adv-x="532" 
d="M266 -12c-143 0 -232 92 -232 240s89 239 232 239c144 0 231 -91 231 -239s-88 -240 -231 -240zM266 53c91 0 145 65 145 176c0 112 -54 173 -145 173s-146 -61 -146 -173s54 -176 146 -176zM124 522l96 170h87l96 -170h-52l-87 119l-88 -119h-52z" />
    <glyph glyph-name="odieresis" unicode="&#xf6;" horiz-adv-x="532" 
d="M266 -12c-143 0 -232 92 -232 240s89 239 232 239c144 0 231 -91 231 -239s-88 -240 -231 -240zM266 53c91 0 145 65 145 176c0 112 -54 173 -145 173s-146 -61 -146 -173s54 -176 146 -176zM138 553v90h78v-90h-78zM312 553v90h78v-90h-78z" />
    <glyph glyph-name="ograve" unicode="&#xf2;" horiz-adv-x="532" 
d="M266 -12c-143 0 -232 92 -232 240s89 239 232 239c144 0 231 -91 231 -239s-88 -240 -231 -240zM266 53c91 0 145 65 145 176c0 112 -54 173 -145 173s-146 -61 -146 -173s54 -176 146 -176zM331 522h-52l-138 170h87z" />
    <glyph glyph-name="onehalf" unicode="&#xbd;" horiz-adv-x="832" 
d="M95 286v38h66v276c-26 -23 -59 -46 -95 -69v51c29 19 61 41 95 68h53v-326h67v-38h-186zM233 -14h-67l433 678h67zM528 0v62c132 100 210 151 210 206c0 41 -29 66 -71 66c-47 0 -81 -30 -81 -75h-51c1 70 51 113 131 113c79 0 129 -42 129 -106s-79 -126 -224 -228h182
l3 59h46v-97h-274z" />
    <glyph glyph-name="onequarter" unicode="&#xbc;" horiz-adv-x="832" 
d="M95 286v38h66v276c-26 -23 -59 -46 -95 -69v51c29 19 61 41 95 68h53v-326h67v-38h-186zM233 -14h-67l433 678h67zM639 0v38h64v58h-188v55l174 213h66v-229h64v-39h-64v-58h57v-38h-173zM703 135l-1 181l-149 -183z" />
    <glyph glyph-name="onesuperior" unicode="&#xb9;" horiz-adv-x="348" 
d="M99 260v40h70v296c-28 -25 -62 -49 -100 -73v54c30 21 64 44 100 73h55v-350h71v-40h-196z" />
    <glyph glyph-name="otilde" unicode="&#xf5;" horiz-adv-x="532" 
d="M266 -12c-143 0 -232 92 -232 240s89 239 232 239c144 0 231 -91 231 -239s-88 -240 -231 -240zM266 53c91 0 145 65 145 176c0 112 -54 173 -145 173s-146 -61 -146 -173s54 -176 146 -176zM405 653c-16 -62 -50 -94 -96 -94c-12 0 -23 2 -33 5l-39 13c-9 3 -17 4 -25 4
c-22 0 -38 -9 -48 -31h-42c14 60 47 91 96 91c10 0 20 -1 29 -4l39 -14c10 -3 21 -5 30 -5c23 0 39 12 47 35h42z" />
    <glyph glyph-name="plusminus" unicode="&#xb1;" horiz-adv-x="833" 
d="M446 576v-168h263v-57h-263v-168h-58v168h-264v57h264v168h58zM709 77v-57h-585v57h585z" />
    <glyph glyph-name="registered" unicode="&#xae;" horiz-adv-x="833" 
d="M416 713c98 0 187 -37 256 -106c67 -67 103 -157 103 -253c0 -98 -36 -186 -104 -252c-71 -69 -161 -107 -255 -107c-95 0 -184 38 -253 107c-68 68 -105 157 -105 252s38 186 108 256c66 67 153 103 250 103zM733 352c0 86 -32 166 -91 225c-61 61 -139 93 -226 93
c-85 0 -162 -31 -220 -90c-62 -62 -95 -142 -95 -226c0 -83 33 -161 93 -222s139 -93 221 -93c85 0 164 32 226 93c59 58 92 135 92 220zM426 565c114 0 171 -36 171 -113c0 -57 -36 -99 -96 -109l92 -188h-77l-86 178h-87v-178h-69v410h152zM413 520h-70v-142h72
c76 0 111 17 111 69c0 53 -36 73 -113 73z" />
    <glyph glyph-name="scaron" unicode="&#x161;" horiz-adv-x="492" 
d="M54 0v157h65c12 -68 59 -104 129 -104c68 0 109 32 109 76c0 38 -26 55 -89 64l-85 12c-80 12 -123 55 -123 120c0 83 68 143 174 143c62 0 107 -20 137 -63v51h58v-151h-56c-5 64 -55 98 -122 98c-71 0 -110 -24 -110 -69c0 -31 20 -50 62 -56l80 -11
c106 -15 155 -54 155 -136c0 -83 -65 -143 -173 -143c-65 0 -113 23 -149 70v-58h-62zM104 692h52l88 -119l87 119h52l-96 -170h-87z" />
    <glyph glyph-name="thorn" unicode="&#xfe;" horiz-adv-x="600" 
d="M175 224c0 -104 64 -171 150 -171c90 0 151 67 151 174c0 109 -62 176 -151 176c-87 0 -150 -67 -150 -179zM94 590h-76v60h157v-278c38 63 95 96 166 96c137 0 221 -93 221 -240c0 -145 -87 -240 -217 -240c-75 0 -130 31 -170 95v-185h85v-62h-242v62h76v692z" />
    <glyph glyph-name="threequarters" unicode="&#xbe;" horiz-adv-x="832" 
d="M31 389h54c0 -45 32 -72 83 -72c49 0 78 24 78 65c0 46 -32 69 -98 71v38c66 2 94 21 94 68c0 39 -25 60 -71 60c-49 0 -79 -24 -82 -66h-54c8 70 52 105 133 105c82 0 129 -38 129 -102c0 -45 -27 -72 -82 -85c58 -9 89 -41 89 -91c0 -61 -51 -101 -138 -101
c-89 0 -135 37 -135 110zM233 -14h-67l433 678h67zM639 0v38h64v58h-188v55l174 213h66v-229h64v-39h-64v-58h57v-38h-173zM703 135l-1 181l-149 -183z" />
    <glyph glyph-name="threesuperior" unicode="&#xb3;" horiz-adv-x="348" 
d="M33 370h56c0 -48 34 -76 87 -76c51 0 82 25 82 69c0 49 -34 74 -103 76v41c69 2 98 22 98 72c0 42 -26 65 -74 65c-52 0 -83 -26 -85 -71h-58c9 75 55 112 140 112c86 0 135 -40 135 -109c0 -48 -29 -77 -85 -90c60 -11 92 -45 92 -98c0 -66 -53 -109 -144 -109
c-93 0 -141 40 -141 118z" />
    <glyph glyph-name="trademark" unicode="&#x2122;" horiz-adv-x="833" 
d="M339 711v-33h-84v-228h-46v228h-85v33h215zM463 711l78 -198l73 198h64v-261h-40v224l-84 -224h-26l-88 224v-224h-40v261h63z" />
    <glyph glyph-name="twosuperior" unicode="&#xb2;" horiz-adv-x="348" 
d="M29 260v66c139 108 220 163 220 221c0 44 -30 71 -74 71c-49 0 -85 -32 -85 -81h-54c2 76 54 121 138 121c83 0 136 -45 136 -113s-84 -135 -236 -245h191l3 64h48v-104h-287z" />
    <glyph glyph-name="uacute" unicode="&#xfa;" horiz-adv-x="578" 
d="M484 456v-396h76v-60h-154v79c-42 -62 -91 -91 -158 -91c-111 0 -160 53 -160 164v244h-76v60h157v-304c0 -69 33 -99 99 -99c79 0 135 49 135 139v204h-85v60h166zM201 522l102 170h87l-137 -170h-52z" />
    <glyph glyph-name="ucircumflex" unicode="&#xfb;" horiz-adv-x="578" 
d="M484 456v-396h76v-60h-154v79c-42 -62 -91 -91 -158 -91c-111 0 -160 53 -160 164v244h-76v60h157v-304c0 -69 33 -99 99 -99c79 0 135 49 135 139v204h-85v60h166zM128 522l96 170h87l96 -170h-52l-87 119l-88 -119h-52z" />
    <glyph glyph-name="udieresis" unicode="&#xfc;" horiz-adv-x="578" 
d="M484 456v-396h76v-60h-154v79c-42 -62 -91 -91 -158 -91c-111 0 -160 53 -160 164v244h-76v60h157v-304c0 -69 33 -99 99 -99c79 0 135 49 135 139v204h-85v60h166zM142 553v90h78v-90h-78zM316 553v90h78v-90h-78z" />
    <glyph glyph-name="ugrave" unicode="&#xf9;" horiz-adv-x="578" 
d="M484 456v-396h76v-60h-154v79c-42 -62 -91 -91 -158 -91c-111 0 -160 53 -160 164v244h-76v60h157v-304c0 -69 33 -99 99 -99c79 0 135 49 135 139v204h-85v60h166zM335 522h-52l-138 170h87z" />
    <glyph glyph-name="yacute" unicode="&#xfd;" horiz-adv-x="531" 
d="M7 396v60h217v-60h-79l128 -304l119 304h-79v60h211v-60h-51l-204 -493c-24 -57 -53 -80 -118 -80c-16 0 -37 1 -62 5v65c14 -3 27 -5 39 -5c37 0 62 15 74 43l30 69l-174 396h-51zM197 522l102 170h87l-137 -170h-52z" />
    <glyph glyph-name="ydieresis" unicode="&#xff;" horiz-adv-x="531" 
d="M7 396v60h217v-60h-79l128 -304l119 304h-79v60h211v-60h-51l-204 -493c-24 -57 -53 -80 -118 -80c-16 0 -37 1 -62 5v65c14 -3 27 -5 39 -5c37 0 62 15 74 43l30 69l-174 396h-51zM138 553v90h78v-90h-78zM312 553v90h78v-90h-78z" />
    <glyph glyph-name="zcaron" unicode="&#x17e;" horiz-adv-x="487" 
d="M441 0h-394v77l299 319h-218v-89h-68v149h381v-72l-301 -324h233v104h68v-164zM102 692h52l88 -119l87 119h52l-96 -170h-87z" />
    </font>
</defs>
</svg>
